<svg width="378" height="17" viewBox="0 0 378 17" fill="none" xmlns="http://www.w3.org/2000/svg">
<path fill-rule="evenodd" clipRule="evenodd" d="M4.48468 8.75421L31.3932 8.15421L56.0593 7.55421L80.0847 6.85421C83.6084 6.75421 87.2923 6.55421 90.9762 6.55421L106.993 6.35421H115.802L132.3 6.55421L156.966 7.15421L207.419 8.45421L232.246 9.25421L256.912 9.95421C272.448 10.3542 287.985 10.6542 303.361 11.2542L316.174 11.7542L330.43 12.4542L342.763 13.1542L347.888 13.4542L353.814 13.9542L362.143 14.5542L372.714 15.7542L373.675 15.8542C374.486 15.8781 375.286 15.7342 375.953 15.4448C376.619 15.1555 377.113 14.737 377.359 14.2542C377.68 13.6542 377.519 12.9542 377.039 12.3542C376.719 11.9542 375.758 11.3542 374.957 11.2542L368.23 10.4542L361.502 9.75421C354.203 9.14282 346.888 8.60941 339.559 8.15421C340.167 7.8925 340.642 7.52698 340.926 7.10136C341.21 6.67574 341.291 6.20805 341.161 5.75421C340.841 5.15421 340.2 4.55421 339.559 4.25421L337.797 3.75421C336.418 3.58638 335.029 3.45294 333.633 3.35421L330.43 3.05421L324.343 2.85421L312.33 2.45421L287.504 1.95421L262.838 1.65421L249.864 1.45421H210.783L185.476 1.25421C169.94 1.15421 154.083 1.05421 138.386 1.15421H115.002C106.673 1.15421 98.344 1.15421 90.0152 1.35421L73.5177 1.45421L64.0677 1.55421L49.0118 1.95421L39.0813 2.25421C27.2287 2.75421 15.5364 3.25421 3.844 3.95421C3.04315 4.05421 2.56265 4.25421 2.08214 4.55421C1.28129 4.95421 0.800781 5.55421 0.800781 6.15421C0.800781 7.45421 2.40248 8.65421 4.48468 8.65421" fill="#ff6f91"/>
</svg>
